<?xml version="1.0" encoding="UTF-8"?>
<svg width="110px" height="32px" viewBox="0 0 110 32" version="1.1" xmlns="http://www.w3.org/2000/svg" xmlns:xlink="http://www.w3.org/1999/xlink">
    <!-- Generator: Sketch 48.1 (47250) - http://www.bohemiancoding.com/sketch -->
    <title>Page 1</title>
    <desc>Created with Sketch.</desc>
    <defs>
        <polygon id="path-1" points="0 0.585513514 31.4143135 0.585513514 31.4143135 31.9997405 0 31.9997405"></polygon>
        <polygon id="path-3" points="0 33 110 33 110 1 0 1"></polygon>
    </defs>
    <g id="Desktop" stroke="none" stroke-width="1" fill="none" fill-rule="evenodd" transform="translate(-456.000000, -55.000000)">
        <g id="Page-1" transform="translate(456.000000, 55.000000)">
            <path d="M28.2331704,25.0606175 C28.1980694,25.030748 28.1980694,25.030748 28.1612135,25 L28.1383979,25.0658886 C27.3846057,26.9459086 25.8831641,28.4455321 24,29.186998 L26.8256237,32 C28.4683465,30.8834086 29.887301,29.4610944 31,27.8156376 L28.2331704,25.0606175 Z" id="Fill-1" fill="#FEFEFE"></path>
            <g id="Group-5">
                <mask id="mask-2" fill="white">
                    <use xlink:href="#path-1"></use>
                </mask>
                <g id="Clip-4"></g>
                <path d="M24.6104216,29.1534703 L18.9913946,23.542227 C18.0288,23.958227 16.8058811,24.2531459 15.6910703,24.2531459 C11.3183135,24.2531459 7.7740973,20.7089297 7.7740973,16.3370378 C7.7740973,15.6607135 7.85971892,15.0051459 8.01885405,14.3781189 C8.2195027,13.5910919 8.53863784,12.8524973 8.95377297,12.1804973 C10.3496649,9.92492973 12.8439351,8.42006486 15.6910703,8.42006486 C15.7308541,8.42006486 15.7706378,8.42352432 15.8104216,8.42438919 C15.9211243,8.42611892 16.0309622,8.42784865 16.1399351,8.4339027 C20.3033946,8.66741622 23.6071784,12.1156324 23.6071784,16.3370378 C23.6071784,17.4198486 23.3892324,18.4507676 22.9957189,19.3900108 L28.4772324,24.8715243 L28.6770162,25.0713081 L28.7064216,25.0998486 C28.7436108,25.0453622 28.7782054,24.9900108 28.8145297,24.9337946 C30.4560432,22.4533622 31.4143135,19.4834162 31.4143135,16.2929297 C31.4143135,14.4256865 31.0856649,12.6336865 30.4845838,10.9714162 C28.3103135,4.95282162 22.559827,0.631091892 15.8104216,0.587848649 C15.775827,0.586983784 15.7420973,0.585254054 15.7075027,0.585254054 C15.4904216,0.585254054 15.2750703,0.590443243 15.0605838,0.599091892 C12.0456649,0.721902703 9.2460973,1.6992 6.89971892,3.29401081 C5.24436757,4.41833514 3.81388108,5.85141622 2.69215135,7.5084973 C2.54512432,7.72557838 2.40588108,7.94611892 2.2700973,8.17098378 C1.54361081,9.36882162 0.971935135,10.6704432 0.584475676,12.0490378 C0.2048,13.3990919 -0.000172972973,14.8226595 -0.000172972973,16.2929297 C-0.000172972973,23.0855784 4.33625946,28.8844973 10.3859892,31.0700108 C12.0491243,31.6710919 13.8402595,31.9997405 15.7075027,31.9997405 C18.8988541,31.9997405 21.9924757,30.9316324 24.473773,29.2901189 C24.5204757,29.2589838 24.5680432,29.2295784 24.6156108,29.1975784 C24.6233946,29.1923892 24.6311784,29.1872 24.6389622,29.1820108 L24.6104216,29.1534703 Z" id="Fill-3" fill="#FEFEFE" mask="url(#mask-2)"></path>
            </g>
            <mask id="mask-4" fill="white">
                <use xlink:href="#path-3"></use>
            </mask>
            <g id="Clip-7"></g>
            <polygon id="Fill-6" fill="#FEFEFE" mask="url(#mask-4)" points="55 30 55.74 30 55.74 25 55 25"></polygon>
            <polygon id="Fill-8" fill="#FEFEFE" mask="url(#mask-4)" points="58 25.6217482 59.6606366 25.6217482 59.6606366 30 60.3402794 30 60.3402794 25.6217482 62 25.6217482 62 25 58 25"></polygon>
            <path d="M68.6510445,27.168767 C68.1705945,26.9363079 67.7174612,26.7174728 67.7174612,26.3027929 C67.7174612,25.8446866 68.0316015,25.6122275 68.6494376,25.6122275 C69.057579,25.6122275 69.4681307,25.7229223 69.6946974,25.8182902 L69.8738618,25.8940736 L69.9863417,25.2963215 L69.8618104,25.2435286 C69.493037,25.0894074 69.0479379,25 68.6430102,25 C67.690948,25 67.1229245,25.4921662 67.1229245,26.3164169 C67.1229245,27.1253406 67.8018211,27.4506131 68.4027852,27.7384196 C68.9410819,27.9964237 69.4054633,28.2178134 69.4054633,28.7108311 C69.4054633,29.2719687 68.9483128,29.388624 68.5650777,29.388624 C68.0854312,29.388624 67.5399036,29.1978883 67.3053026,29.0633515 L67.1092662,28.9483992 L67,29.6023501 L67.1148902,29.6576975 C67.580075,29.8756812 68.1071237,30 68.5650777,30 C69.4641136,30 70,29.5180518 70,28.7108311 C70,27.821015 69.252812,27.4591281 68.6510445,27.168767" id="Fill-9" fill="#FEFEFE" mask="url(#mask-4)"></path>
            <path d="M75.3602417,27.2939373 L75.3602417,27.7052112 C75.3602417,28.5439373 74.9397798,29.388624 74.0004317,29.388624 C73.0602202,29.388624 72.6397583,28.5439373 72.6397583,27.7052112 L72.6397583,27.2939373 C72.6397583,26.4569142 73.0602202,25.611376 74.0004317,25.611376 C74.9397798,25.611376 75.3602417,26.4569142 75.3602417,27.2939373 M74.0004317,25 C72.785668,25 72,25.9076975 72,27.3135218 L72,27.6864782 C72,29.091451 72.785668,30 74.0004317,30 C75.2151953,30 76,29.091451 76,27.6864782 L76,27.3135218 C76,25.9076975 75.2151953,25 74.0004317,25" id="Fill-10" fill="#FEFEFE" mask="url(#mask-4)"></path>
            <polygon id="Fill-11" fill="#FEFEFE" mask="url(#mask-4)" points="77.6823204 25 77 25 77 30 80 30 80 29.3782518 77.6823204 29.3782518"></polygon>
            <path d="M85.3045519,28.2176006 C85.3045519,29.0778618 84.6288128,29.3829495 83.9953074,29.3829495 C83.3664946,29.3829495 82.6945096,29.0778618 82.6945096,28.2176006 L82.6945096,25 L82,25 L82,28.2176006 C82,29.4491234 83.0014078,30 83.9953074,30 C84.9929611,30 86,29.4491234 86,28.2176006 L86,25 L85.3045519,25 L85.3045519,28.2176006 Z" id="Fill-12" fill="#FEFEFE" mask="url(#mask-4)"></path>
            <polygon id="Fill-13" fill="#FEFEFE" mask="url(#mask-4)" points="87 25.6217482 88.6602564 25.6217482 88.6602564 30 89.3397436 30 89.3397436 25.6217482 91 25.6217482 91 25 87 25"></polygon>
            <polygon id="Fill-14" fill="#FEFEFE" mask="url(#mask-4)" points="93 30 93.74 30 93.74 25 93 25"></polygon>
            <path d="M98.3602417,27.2939373 L98.3602417,27.7052112 C98.3602417,28.5439373 97.9397798,29.388624 96.9995683,29.388624 C96.0602202,29.388624 95.6397583,28.5439373 95.6397583,27.7052112 L95.6397583,27.2939373 C95.6397583,26.4569142 96.0602202,25.611376 96.9995683,25.611376 C97.9397798,25.611376 98.3602417,26.4569142 98.3602417,27.2939373 M96.9995683,25 C95.785668,25 95,25.9076975 95,27.3135218 L95,27.6864782 C95,29.091451 95.785668,30 96.9995683,30 C98.2151953,30 99,29.091451 99,27.6864782 L99,27.3135218 C99,25.9076975 98.2151953,25 96.9995683,25" id="Fill-15" fill="#FEFEFE" mask="url(#mask-4)"></path>
            <polygon id="Fill-16" fill="#FEFEFE" mask="url(#mask-4)" points="103.418239 28.7103209 101.571541 25 101 25 101 30 101.582547 30 101.582547 26.3477884 103.399371 30 104 30 104 25 103.418239 25"></polygon>
            <path d="M107.651767,27.168767 C107.171574,26.9363079 106.71788,26.7166213 106.71788,26.3027929 C106.71788,25.8446866 107.031049,25.6122275 107.649358,25.6122275 C108.058084,25.6122275 108.467612,25.7229223 108.694058,25.8182902 L108.873126,25.8949251 L108.985546,25.297173 L108.861884,25.2435286 C108.492505,25.0894074 108.048448,25 107.643737,25 C106.692184,25 106.123662,25.4921662 106.123662,26.3164169 C106.123662,27.1253406 106.801392,27.4506131 107.401231,27.7375681 C107.940043,27.9955722 108.404979,28.2178134 108.404979,28.7108311 C108.404979,29.2719687 107.948073,29.388624 107.565043,29.388624 C107.085653,29.388624 106.541221,29.1978883 106.306745,29.0633515 L106.110011,28.9483992 L106,29.6032016 L106.115632,29.6576975 C106.580567,29.8756812 107.108137,30 107.565043,30 C108.463597,30 109,29.5180518 109,28.7108311 C109,27.8218665 108.252409,27.4591281 107.651767,27.168767" id="Fill-17" fill="#FEFEFE" mask="url(#mask-4)"></path>
            <path d="M49.0961743,17.060268 C48.6622388,17.5950888 48.0352462,17.8642245 47.2169678,17.8642245 C46.4305703,17.8642245 45.8142047,17.56576 45.3669855,16.9714187 C44.9188806,16.3770775 44.6948282,15.5066996 44.6948282,14.3611479 C44.6948282,13.2026569 44.9171095,12.3314164 45.361672,11.7465639 C45.8053489,11.1608488 46.4155154,10.8684226 47.1886291,10.8684226 C48.0449876,10.8684226 48.6888062,11.1599862 49.120085,11.7413882 C49.5522494,12.3236529 49.767446,13.2501006 49.767446,14.5207315 C49.7541622,15.6774973 49.5309954,16.5245845 49.0961743,17.060268 Z M49.5938718,10.5604693 C48.9031173,9.52015642 47.8643287,9 46.4775062,9 C45.0650018,9 43.9659936,9.49255276 43.1795962,10.4759331 C42.3940843,11.460176 42,12.7454713 42,14.3335442 C42,15.9328311 42.4162239,17.2310656 43.2469005,18.2282477 C44.077577,19.2237046 45.1739284,19.7214331 46.5350691,19.7214331 C47.8776125,19.7214331 48.8809777,19.1866122 49.5460503,18.1161079 C49.5017712,18.569843 49.4796316,19.0123641 49.4796316,19.4419461 L49.4796316,24 L52,24 L52,9.25274599 L49.794899,9.25274599 L49.5938718,10.5604693 Z" id="Fill-18" fill="#FEFEFE" mask="url(#mask-4)"></path>
            <path d="M61.5201049,15.7669278 C61.5201049,16.5797938 61.3601399,17.163134 61.041958,17.5205773 C60.7237762,17.8771134 60.2176573,18.0558351 59.5236014,18.0558351 C58.8164336,18.0558351 58.3006993,17.875299 57.9755245,17.5160412 C57.6503497,17.1549691 57.4895105,16.5734433 57.4895105,15.7669278 L57.4895105,9 L55,9 L55,15.8649072 C55,17.2211959 55.4117133,18.2490722 56.2351399,18.9494433 C57.0585664,19.6498144 58.1451049,20 59.4956294,20 C60.8452797,20 61.9335664,19.648 62.7596154,18.944 C63.5865385,18.2409072 64,17.2139381 64,15.8649072 L64,9 L61.5201049,9 L61.5201049,15.7669278 Z" id="Fill-19" fill="#FEFEFE" mask="url(#mask-4)"></path>
            <path d="M73.465733,16.7871638 C73.2771156,17.1840071 72.966031,17.5206152 72.5306913,17.7996457 C72.0953516,18.0777903 71.5840286,18.2159768 70.9967223,18.2159768 C70.5059595,18.2159768 70.1296186,18.0972781 69.8650179,17.8563376 C69.6004172,17.6171686 69.4681168,17.273474 69.4681168,16.8261395 C69.4681168,16.1741826 69.7067938,15.7002738 70.1841478,15.4061846 C70.6615018,15.1120953 71.4132896,14.9207602 72.4395113,14.8312933 C72.465435,14.8312933 72.6370679,14.8188919 72.9570918,14.7923176 C73.2762217,14.7675149 73.4460667,14.7542277 73.465733,14.7542277 L73.465733,16.7871638 Z M71.8969011,9 C70.4389154,9 69.0846246,9.26574328 67.8322408,9.79634402 C67.8393921,9.80963118 67.9448749,10.0966339 68.1522646,10.6600097 C68.3587604,11.2224996 68.4642431,11.5130456 68.4705006,11.5316476 C69.7416567,11.0524239 70.8098927,10.8123691 71.6743147,10.8123691 C72.2812872,10.8123691 72.7336114,10.9585279 73.0294994,11.2490739 C73.3262813,11.5405057 73.4755662,12.0055565 73.4755662,12.6451119 L73.4755662,13.2014012 C73.306615,13.220889 73.0768772,13.2421485 72.7872467,13.267837 C72.4967223,13.2935255 72.2356973,13.319214 72.0041716,13.3440167 C71.7708582,13.3714769 71.5545292,13.3962796 71.3551847,13.4210823 C69.897199,13.5619262 68.806615,13.895877 68.0834327,14.4229344 C67.3611442,14.9508778 67,15.7613947 67,16.8544854 C67,17.8713964 67.3048272,18.6500242 67.9144815,19.1903688 C68.5250298,19.7298277 69.3224076,20 70.3101907,20 C71.0324791,20 71.647497,19.8795297 72.1534565,19.6403608 C72.6603099,19.4011918 73.1778903,19.0247222 73.7070918,18.5136093 C73.7070918,18.5392978 73.7750298,18.753664 73.9100119,19.1558222 C74.045888,19.559752 74.1174017,19.7732324 74.1227652,19.7989209 L76,19.7989209 L76,12.9232566 C76,11.5413915 75.6755066,10.5430826 75.022944,9.92655822 C74.3712753,9.30914801 73.329857,9 71.8969011,9 Z" id="Fill-20" fill="#FEFEFE" mask="url(#mask-4)"></path>
            <path d="M85.6737189,9.03597724 C85.6720733,9.03597724 85.6704278,9.03597724 85.6696051,9.03514056 C85.5626469,9.02259036 85.4853079,9.0167336 85.4334744,9.0125502 C85.4153738,9.01171352 85.3997414,9.00920348 85.3808181,9.0083668 C85.377527,9.0083668 85.3668312,9.00753012 85.3668312,9.00753012 L85.3668312,9.0083668 C85.2705689,9.00334672 85.166079,9 85.0500705,9 C83.8332158,9 82.9035026,9.52208835 82.2625764,10.5671017 L81.9589798,9.04518072 L80,9.04518072 L80,19 L82.3325106,19 L82.3325106,13.6009036 C82.3325106,12.7742637 82.5447814,12.12751 82.9701457,11.6631526 C83.3938646,11.1979585 84.0372591,10.9653614 84.8986836,10.9653614 C85.1413963,10.9653614 85.3734133,10.9837684 85.5996709,11.0163989 C85.7996004,11.0373159 86.0242125,11.0891901 86.2488246,11.1619813 L87,9.3020415 C86.4775505,9.14725569 85.978961,9.0711178 85.6737189,9.03597724" id="Fill-21" fill="#FEFEFE" mask="url(#mask-4)"></path>
            <path d="M91.4311016,13.460058 C91.4911907,12.5769045 91.7298776,11.9125463 92.1496662,11.4652118 C92.5677856,11.0178773 93.0818806,10.7928813 93.6902819,10.7928813 C94.3404117,10.7928813 94.8494993,11.024078 95.2167099,11.4846996 C95.5847552,11.9444355 95.767526,12.602593 95.767526,13.460058 L91.4311016,13.460058 Z M93.6811016,9 C92.2347923,9.00708649 91.0939355,9.50491222 90.256862,10.4961346 C89.4197886,11.4864713 89,12.8205025 89,14.4955709 C89,16.2149299 89.4448257,17.5631342 90.3336424,18.5375262 C91.2216246,19.5119182 92.4634644,20 94.0599963,20 C95.4336981,20 96.617118,19.6740216 97.6110905,19.0220647 L97.2772626,17.2389274 C96.2774481,17.8386214 95.2350705,18.1397971 94.1501298,18.1397971 C93.3005378,18.1397971 92.6337166,17.8696247 92.1496662,17.3283943 C91.6639466,16.7889354 91.4102374,16.0262522 91.3852003,15.0421163 L97.9908197,15.0421163 C97.9908197,14.9269609 97.9916543,14.7480271 97.9949926,14.5053149 C97.9983309,14.2626027 98,14.0863263 98,13.9773716 C98,12.475922 97.6219399,11.2694476 96.8658197,10.3623772 C96.1096996,9.454421 95.0481269,9 93.6811016,9 Z" id="Fill-22" fill="#FEFEFE" mask="url(#mask-4)"></path>
            <path d="M109.302694,14.7739362 C108.839031,14.2845745 108.114557,13.8634752 107.127462,13.5115248 C107.048676,13.4796099 106.938193,13.4379433 106.793299,13.3874113 C106.649309,13.3351064 106.565089,13.3067376 106.538827,13.3005319 C105.721983,13.0070922 105.172289,12.7677305 104.891555,12.5851064 C104.609916,12.4024823 104.469549,12.1489362 104.469549,11.822695 C104.469549,11.4769504 104.61535,11.2198582 104.90695,11.0505319 C105.19674,10.8803191 105.600634,10.7952128 106.116821,10.7952128 C107.045053,10.7952128 108.022187,11.0292553 109.049128,11.4964539 L109.68576,9.75975177 C108.64614,9.2535461 107.439891,9 106.067919,9 C104.799185,9 103.81209,9.25620567 103.102106,9.76861702 C102.393027,10.2810284 102.03894,11.016844 102.03894,11.9760638 C102.03894,12.768617 102.257188,13.3980496 102.695495,13.8617021 C103.133801,14.3262411 103.849219,14.7464539 104.841748,15.1241135 C104.927779,15.1569149 105.113425,15.2234043 105.400498,15.3253546 C106.238171,15.6391844 106.805071,15.9007092 107.102106,16.1134752 C107.39914,16.3235816 107.548562,16.6108156 107.548562,16.9760638 C107.542223,17.3794326 107.380122,17.6843972 107.062259,17.8927305 C106.746208,18.1010638 106.302468,18.2047872 105.734662,18.2047872 C105.184967,18.2047872 104.577315,18.1143617 103.910799,17.9317376 C103.245189,17.7491135 102.695495,17.5434397 102.264433,17.3120567 L102,19.2030142 C102.953588,19.7349291 104.22504,20 105.812542,20 C107.14648,20 108.176138,19.7109929 108.901517,19.1356383 C109.62599,18.5602837 109.992755,17.7446809 110,16.6888298 C110,15.9007092 109.768168,15.2632979 109.302694,14.7739362" id="Fill-23" fill="#FEFEFE" mask="url(#mask-4)"></path>
        </g>
    </g>
</svg>