<?xml version="1.0" encoding="UTF-8"?>
<svg width="84px" height="25px" viewBox="0 0 84 25" version="1.1" xmlns="http://www.w3.org/2000/svg" xmlns:xlink="http://www.w3.org/1999/xlink">
    <!-- Generator: Sketch 48.1 (47250) - http://www.bohemiancoding.com/sketch -->
    <title>Group</title>
    <desc>Created with Sketch.</desc>
    <defs></defs>
    <g id="MENU-/-00-Principal" stroke="none" stroke-width="1" fill="none" fill-rule="evenodd" transform="translate(-42.000000, -13.000000)">
        <g id="Group" transform="translate(42.000000, 13.000000)">
            <path d="M22.1662284,19.1639197 C22.1402948,19.1422311 22.1402948,19.1422311 22.1127403,19.1189361 L22.0949109,19.1679361 C21.5324749,20.5584115 20.4100341,21.6677393 19.0031336,22.217182 L21.1142948,24.2992803 C22.342091,23.4719033 23.4013185,22.4204115 24.234437,21.2018377 L22.1662284,19.1639197 Z" id="Fill-4" fill="#69B245"></path>
            <path d="M12.2179185,6.5836918 C12.2479043,6.5836918 12.27789,6.58610164 12.3086863,6.58690492 L12.3086863,0.697265574 C12.2827526,0.696462295 12.256819,0.695659016 12.2308853,0.695659016 C12.0663687,0.695659016 11.9026626,0.69967541 11.7397668,0.706101639 C9.45355355,0.798478689 7.33185687,1.53267541 5.55216019,2.73116721 C4.29761991,3.57701967 3.21326919,4.65260984 2.36232133,5.8976918 C2.25048246,6.06156066 2.14431659,6.22783934 2.04139242,6.39652787 L7.1098,9.40962623 C8.16740664,7.71390492 10.0589422,6.5836918 12.2179185,6.5836918" id="Fill-6" fill="#69B245"></path>
            <path d="M18.2199374,12.5341393 C18.2199374,13.3462541 18.0546104,14.121418 17.7571839,14.8275 L21.9130512,18.9475164 L22.0646009,19.0977295 C22.1148474,19.0784508 22.140781,19.035877 22.1683355,18.9949098 C23.4139611,17.1296967 24.1401033,14.8981885 24.1401033,12.5004016 C24.1401033,11.0962705 23.8904919,9.75077869 23.4350322,8.50087705 C21.7866246,3.97761475 17.4265299,0.729959016 12.3086863,0.69702459 L12.3086863,6.58666393 C12.3921602,6.58827049 12.4756341,6.58987705 12.5582976,6.59389344 C15.714909,6.76981148 18.2199374,9.36038525 18.2199374,12.5341393 Z" id="Fill-8" fill="#0A9347"></path>
            <path d="M18.9807659,22.1652098 L14.7203536,17.9479967 C13.9909697,18.2612754 13.0630313,18.4829803 12.2177564,18.4829803 C8.90230142,18.4829803 6.21492701,15.8193082 6.21492701,12.5338984 C6.21492701,12.025423 6.27976114,11.5322098 6.40132512,11.0614885 C6.55287488,10.4694721 6.79519242,9.91440656 7.11044834,9.40914426 L2.04204076,6.3960459 C1.49095071,7.29652131 1.05818294,8.27411148 0.763998104,9.31034098 C0.476296682,10.3256852 0.320694787,11.3948492 0.320694787,12.5001607 C0.320694787,17.6058 3.60859526,21.9635869 8.19479905,23.6062918 C9.45582275,24.0569311 10.8149081,24.304341 12.2307232,24.304341 C14.6498464,24.304341 16.9960313,23.5018656 18.8770313,22.2688328 C18.91269,22.2455377 18.9491592,22.2222426 18.984818,22.1989475 C18.9913014,22.1941279 18.9977848,22.1909148 19.0026474,22.1868984 L18.9807659,22.1652098 Z" id="Fill-10" fill="#A5CD39"></path>
            <polygon id="Fill-12" fill="#000000" points="42.4348341 22.5024262 42.92109 22.5024262 42.92109 18.7551311 42.4348341 18.7551311"></polygon>
            <polygon id="Fill-14" fill="#000000" points="44.2875502 19.2211934 45.476446 19.2211934 45.476446 22.5025869 45.9618915 22.5025869 45.9618915 19.2211934 47.1515976 19.2211934 47.1515976 18.7552918 44.2875502 18.7552918"></polygon>
            <path d="M52.5769981,20.3759066 C52.1855621,20.1975787 51.8160076,20.0304967 51.8160076,19.7148082 C51.8160076,19.3645787 52.0712919,19.1870541 52.5761877,19.1870541 C52.909273,19.1870541 53.2431687,19.2713984 53.4287564,19.3444967 L53.5754436,19.4023328 L53.6678322,18.9460705 L53.5657185,18.9059066 C53.2642398,18.7870213 52.9011687,18.7195459 52.5705147,18.7195459 C51.7933156,18.7195459 51.3297517,19.0954803 51.3297517,19.7244475 C51.3297517,20.3429721 51.8848938,20.5911852 52.3752019,20.8104803 C52.8144531,21.0072836 53.1937327,21.1767754 53.1937327,21.5527098 C53.1937327,21.9808574 52.8201261,22.0700213 52.506491,22.0700213 C52.1158654,22.0700213 51.6701308,21.9246279 51.4788701,21.8210049 L51.3184057,21.7334475 L51.2300692,22.2330869 L51.3232682,22.2756607 C51.7033583,22.4419393 52.1336948,22.5367262 52.506491,22.5367262 C53.239927,22.5367262 53.6783678,22.1680213 53.6783678,21.5527098 C53.6783678,20.8731361 53.0681166,20.5968082 52.5769981,20.3759066" id="Fill-15" fill="#000000"></path>
            <path d="M57.528218,20.4708541 L57.528218,20.7857393 C57.528218,21.4251492 57.2080995,22.070182 56.4957346,22.070182 C55.7817488,22.070182 55.4616303,21.4251492 55.4616303,20.7857393 L55.4616303,20.4708541 C55.4616303,19.8322475 55.7817488,19.1864115 56.4957346,19.1864115 C57.2080995,19.1864115 57.528218,19.8322475 57.528218,20.4708541 M56.4957346,18.7197066 C55.5718483,18.7197066 54.9761848,19.4137393 54.9761848,20.4869197 L54.9761848,20.7712803 C54.9761848,21.8436574 55.5718483,22.5368869 56.4957346,22.5368869 C57.418,22.5368869 58.0144739,21.8436574 58.0144739,20.7712803 L58.0144739,20.4869197 C58.0144739,19.4137393 57.418,18.7197066 56.4957346,18.7197066" id="Fill-16" fill="#000000"></path>
            <polygon id="Fill-17" fill="#000000" points="59.9365626 18.7552115 59.4503066 18.7552115 59.4503066 22.5025066 61.5874014 22.5025066 61.5874014 22.0366049 59.9365626 22.0366049"></polygon>
            <path d="M65.0713441,21.1885836 C65.0713441,21.8392393 64.5988654,22.0705836 64.1563725,22.0705836 C63.7171213,22.0705836 63.2470739,21.8392393 63.2470739,21.1885836 L63.2470739,18.7554525 L62.7616284,18.7554525 L62.7616284,21.1885836 C62.7616284,22.1195836 63.4626474,22.5372885 64.1563725,22.5372885 C64.8533393,22.5372885 65.5576,22.1195836 65.5576,21.1885836 L65.5576,18.7554525 L65.0713441,18.7554525 L65.0713441,21.1885836 Z" id="Fill-18" fill="#000000"></path>
            <polygon id="Fill-19" fill="#000000" points="66.912228 19.2211934 68.1019341 19.2211934 68.1019341 22.5025869 68.5873796 22.5025869 68.5873796 19.2211934 69.7762754 19.2211934 69.7762754 18.7552918 66.912228 18.7552918"></polygon>
            <polygon id="Fill-20" fill="#000000" points="71.1514882 22.5024262 71.6369336 22.5024262 71.6369336 18.7551311 71.1514882 18.7551311"></polygon>
            <path d="M75.6433583,20.4708541 L75.6433583,20.7857393 C75.6433583,21.4251492 75.3232398,22.070182 74.6100645,22.070182 C73.8960787,22.070182 73.5759602,21.4251492 73.5759602,20.7857393 L73.5759602,20.4708541 C73.5759602,19.8322475 73.8960787,19.1864115 74.6100645,19.1864115 C75.3232398,19.1864115 75.6433583,19.8322475 75.6433583,20.4708541 M74.6100645,18.7197066 C73.6877991,18.7197066 73.0913251,19.4137393 73.0913251,20.4869197 L73.0913251,20.7712803 C73.0913251,21.8436574 73.6877991,22.5368869 74.6100645,22.5368869 C75.5323299,22.5368869 76.1288038,21.8436574 76.1288038,20.7712803 L76.1288038,20.4869197 C76.1288038,19.4137393 75.5323299,18.7197066 74.6100645,18.7197066" id="Fill-21" fill="#000000"></path>
            <polygon id="Fill-22" fill="#000000" points="79.5830848 21.536082 78.0432744 18.7551311 77.5659332 18.7551311 77.5659332 22.5024262 78.0513787 22.5024262 78.0513787 19.7648525 79.5668763 22.5024262 80.0693408 22.5024262 80.0693408 18.7551311 79.5830848 18.7551311"></polygon>
            <path d="M82.7875924,20.3759066 C82.3961564,20.1975787 82.024981,20.0296934 82.024981,19.7148082 C82.024981,19.3645787 82.2810758,19.1870541 82.7859716,19.1870541 C83.1198673,19.1870541 83.453763,19.2713984 83.6393507,19.3444967 L83.7852275,19.4031361 L83.8776161,18.9468738 L83.7763128,18.9059066 C83.4748341,18.7870213 83.111763,18.7195459 82.781109,18.7195459 C82.00391,18.7195459 81.540346,19.0954803 81.540346,19.7244475 C81.540346,20.3429721 82.0946777,20.5911852 82.5825545,20.809677 C83.0234265,21.0064803 83.4035166,21.1767754 83.4035166,21.5527098 C83.4035166,21.9808574 83.02991,22.0700213 82.7170853,22.0700213 C82.3256493,22.0700213 81.8807251,21.9246279 81.6894645,21.8210049 L81.529,21.7334475 L81.4390427,22.2338902 L81.5330521,22.2756607 C81.9131422,22.4419393 82.3442891,22.5367262 82.7170853,22.5367262 C83.4505213,22.5367262 83.8881517,22.1680213 83.8881517,21.5527098 C83.8881517,20.8731361 83.2779005,20.5968082 82.7875924,20.3759066" id="Fill-23" fill="#000000"></path>
            <path d="M37.4409047,12.8193033 C37.1191654,13.2225492 36.654791,13.4249754 36.0494024,13.4249754 C35.4675161,13.4249754 35.0104355,13.2008607 34.6797815,12.7526311 C34.3483171,12.3044016 34.1821796,11.6489262 34.1821796,10.7862049 C34.1821796,9.91304098 34.3466962,9.25595902 34.6757294,8.8157623 C35.0047626,8.3747623 35.4561701,8.15386066 36.0283313,8.15386066 C36.6628953,8.15386066 37.1394261,8.37395902 37.4587341,8.8117459 C37.7780422,9.25033607 37.9376962,9.94918852 37.9376962,10.9050902 C37.9287815,11.7774508 37.7626441,12.4160574 37.4409047,12.8193033 Z M37.8088384,7.92090984 C37.2974592,7.13851639 36.5291749,6.74571311 35.501554,6.74571311 C34.4552934,6.74571311 33.6424355,7.11682787 33.0605493,7.8582541 C32.4778526,8.59968033 32.1869095,9.56843443 32.1869095,10.7645164 C32.1869095,11.9702377 32.4940611,12.9486311 33.1091749,13.6996967 C33.7250991,14.4491557 34.536336,14.8250902 35.5445066,14.8250902 C36.5389,14.8250902 37.2820611,14.421041 37.77399,13.6145492 C37.7407626,13.9575492 37.724554,14.2901066 37.724554,14.6138279 L37.724554,18.0486475 L39.5909664,18.0486475 L39.5909664,6.93689344 L37.9587673,6.93689344 L37.8088384,7.92090984 Z" id="Fill-24" fill="#000000"></path>
            <path d="M47.3259204,11.7846 C47.3259204,12.366977 47.2067877,12.7854852 46.9677118,13.0409279 C46.728636,13.2971738 46.348546,13.4248951 45.8274417,13.4248951 C45.2982332,13.4248951 44.9116597,13.2955672 44.6677213,13.0377148 C44.4229725,12.779059 44.302219,12.3621574 44.302219,11.7846 L44.302219,6.93681311 L42.4349962,6.93681311 L42.4349962,11.8552885 C42.4349962,12.8264525 42.7437687,13.563059 43.3613137,14.0651082 C43.9788588,14.5671574 44.7941479,14.8177803 45.807181,14.8177803 C46.8194038,14.8177803 47.6363137,14.5655508 48.2554796,14.0610918 C48.8762664,13.5574361 49.1866597,12.8216328 49.1866597,11.8552885 L49.1866597,6.93681311 L47.3259204,6.93681311 L47.3259204,11.7846 Z" id="Fill-25" fill="#000000"></path>
            <path d="M56.2587659,12.4599967 C56.1209934,12.7515869 55.8932635,12.9989967 55.5723346,13.2030295 C55.253837,13.4078656 54.8786095,13.5090787 54.448273,13.5090787 C54.0876332,13.5090787 53.8104673,13.420718 53.6175858,13.2456033 C53.4230834,13.0696852 53.3266427,12.8166525 53.3266427,12.4889148 C53.3266427,12.0101607 53.5016948,11.6631443 53.8517991,11.4470623 C54.2019033,11.2317836 54.7529934,11.0904066 55.5058796,11.025341 C55.5245194,11.025341 55.650946,11.0157016 55.8859697,10.996423 C56.1201829,10.9779475 56.2433678,10.9691115 56.2587659,10.9691115 L56.2587659,12.4599967 Z M55.1079602,6.74627541 C54.0390076,6.74627541 53.0446142,6.94147213 52.1264009,7.33025902 C52.1312635,7.33989836 52.2090645,7.55196393 52.3606142,7.9640459 C52.512164,8.37693115 52.5907754,8.59060328 52.5948275,8.60425902 C53.5276284,8.25242295 54.3113109,8.07650492 54.9450645,8.07650492 C55.3899886,8.07650492 55.7214531,8.18334098 55.9386474,8.39620984 C56.1566521,8.61068525 56.2660597,8.95127541 56.2660597,9.42119344 L56.2660597,9.82925902 C56.1420645,9.84291475 55.9734957,9.85978361 55.7619744,9.87745574 C55.5480218,9.89673443 55.3567611,9.91520984 55.1865716,9.93368525 C55.0155716,9.95376721 54.8575384,9.97143934 54.7108512,9.99071803 C53.6410882,10.094341 52.8411972,10.3385377 52.3111782,10.725718 C51.7811592,11.1128984 51.5153393,11.7073246 51.5153393,12.5098 C51.5153393,13.2552426 51.7398275,13.827177 52.1871829,14.2231934 C52.633728,14.6192098 53.2196664,14.818423 53.9441877,14.818423 C54.4742066,14.818423 54.9248038,14.729259 55.2967896,14.553341 C55.6679649,14.3782262 56.0472445,14.1027016 56.4362493,13.7267672 C56.4362493,13.7460459 56.4848749,13.9026852 56.5845573,14.1982918 C56.6842398,14.4938984 56.7361071,14.6521443 56.7409697,14.6698164 L58.1178844,14.6698164 L58.1178844,9.62442295 C58.1178844,8.61068525 57.879619,7.87809508 57.4014673,7.42584918 C56.9225052,6.9728 56.1590834,6.74627541 55.1079602,6.74627541 Z" id="Fill-26" fill="#000000"></path>
            <path d="M65.9427147,6.92958361 L65.939473,6.92958361 C65.8543782,6.91914098 65.7919754,6.91432131 65.751454,6.91191148 C65.7368664,6.9111082 65.7238995,6.90950164 65.7093118,6.90869836 C65.7060701,6.90869836 65.6979659,6.90789508 65.6979659,6.90789508 C65.6217858,6.90387869 65.5383118,6.90146885 65.4459232,6.90146885 C64.4750322,6.90146885 63.7343024,7.30792787 63.2245441,8.11843607 L62.9822265,6.93681311 L61.4205346,6.93681311 L61.4205346,14.669977 L63.2804635,14.669977 L63.2804635,10.476059 C63.2804635,9.83343607 63.4498427,9.33138689 63.7886009,8.96991148 C64.1265488,8.60923934 64.6387384,8.42850164 65.3243592,8.42850164 C65.5180512,8.42850164 65.7036389,8.44296066 65.884364,8.4678623 C66.0432076,8.48473115 66.2223118,8.52489508 66.4006057,8.58192787 L67.0003213,7.13682951 C66.5829517,7.01553443 66.1866531,6.95689508 65.9427147,6.92958361" id="Fill-27" fill="#000000"></path>
            <path d="M70.3985209,10.0187525 C70.4455256,9.37050656 70.6335445,8.88371967 70.9625777,8.55517869 C71.2916109,8.22744098 71.6952033,8.06196557 72.1725445,8.06196557 C72.6839237,8.06196557 73.083464,8.23145738 73.3727863,8.56883443 C73.6612981,8.90701475 73.805554,9.38978525 73.805554,10.0187525 L70.3985209,10.0187525 Z M72.1660611,6.74619508 C71.0298431,6.75181803 70.1327009,7.11730984 69.475445,7.84427705 C68.8173787,8.57124426 68.4883455,9.5496377 68.4883455,10.7786541 C68.4883455,12.0406049 68.8376393,13.029441 69.5354166,13.7451623 C70.2331938,14.459277 71.2097578,14.8183426 72.4642981,14.8183426 C73.5429758,14.8183426 74.4733455,14.5789656 75.2537863,14.1002115 L74.9920185,12.7908672 C74.2059047,13.2318672 73.3873739,13.4527689 72.5348052,13.4527689 C71.8670137,13.4527689 71.3434782,13.254359 70.9625777,12.8575393 C70.5816773,12.461523 70.3815019,11.902441 70.3620517,11.1794902 L75.5520232,11.1794902 C75.5520232,11.0951459 75.5536441,10.9642115 75.5560754,10.7858836 C75.5585066,10.6075557 75.5593171,10.4782279 75.5593171,10.3987033 C75.5593171,9.29660492 75.2627009,8.41219508 74.6686583,7.74547377 C74.0746156,7.07955574 73.2406867,6.74619508 72.1660611,6.74619508 Z" id="Fill-28" fill="#000000"></path>
            <path d="M83.465028,10.9789115 C83.1295114,10.6206492 82.604355,10.3113869 81.8895588,10.0543377 C81.8320185,10.0302393 81.7525967,9.99971475 81.6480517,9.96196066 C81.5435066,9.92500984 81.4827246,9.90332131 81.4632744,9.89850164 C80.871663,9.68402623 80.474554,9.5081082 80.271137,9.37476393 C80.0669095,9.24141967 79.9656062,9.05425574 79.9656062,8.81568197 C79.9656062,8.5618459 80.0709616,8.37387869 80.2808621,8.24937049 C80.491573,8.12405902 80.7833265,8.06220656 81.1577436,8.06220656 C81.8295872,8.06220656 82.5370896,8.2341082 83.2802507,8.57630492 L83.7421938,7.3031082 C82.9893076,6.93199344 82.1164782,6.74563279 81.1220848,6.74563279 C80.204682,6.74563279 79.4882649,6.93440328 78.9744545,7.3103377 C78.4606441,7.68466557 78.2045493,8.22446885 78.2045493,8.92814098 C78.2045493,9.50971475 78.3625825,9.97079672 78.6802697,10.3105836 C78.9971464,10.6511738 79.5158194,10.9596328 80.2346678,11.2359607 C80.2970706,11.260059 80.4316014,11.309059 80.639881,11.3837639 C81.2460801,11.6135016 81.6561559,11.8054852 81.8717294,11.9613213 C82.0864924,12.1155508 82.1950896,12.3268131 82.1950896,12.5943049 C82.190227,12.8899115 82.0719047,13.113223 81.842554,13.2658459 C81.6132033,13.4184689 81.2922744,13.4947803 80.8813882,13.4947803 C80.4826583,13.4947803 80.0434071,13.4281082 79.5603929,13.2947639 C79.0781891,13.1606164 78.6802697,13.0096 78.367445,12.8401082 L78.1761844,14.2265672 C78.8666678,14.6161574 79.7881227,14.8113541 80.938118,14.8113541 C81.903336,14.8113541 82.648118,14.5992885 83.1740848,14.1767639 C83.6992412,13.7550426 83.9642507,13.1574033 83.9691133,12.3830426 C83.9691133,11.8054852 83.801355,11.337977 83.465028,10.9789115" id="Fill-29" fill="#000000"></path>
        </g>
    </g>
</svg>